<svg xmlns="http://www.w3.org/2000/svg" width="28" height="28" viewBox="0 -0.5 18 18" shape-rendering="crispEdges" xmlns:v="https://vecta.io/nano"><path stroke="rgba(70,128,0,0.08627450980392157)" d="M1 1h1"/><path stroke="#417f00" d="M2 1h3m4 0h2m2 0h3M1 2h3m12 0h1M1 3h1m14 0h1M1 4h1m14 0h1M1 5h1M1 9h1m-1 1h1m14 4h1m-2 1h2m-4 1h3"/><path stroke="#458200" d="M5 1h1m10 5h1m-1 1h1m-1 3h1M3 16h1"/><path stroke="#478400" d="M6 1h1M1 7h1m14 1h1M1 13h1m11 2h1m-3 1h1"/><path stroke="#508d00" d="M7 1h1m6 5h1"/><path stroke="#4e8b00" d="M8 1h1m5 4h1m-4 5h2"/><path stroke="#438000" d="M11 1h1m3 1h1M2 3h1M1 6h1m-1 9h1m12 0h1M2 16h1m9 0h1"/><path stroke="#448100" d="M12 1h1m3 4h1m-1 6h1m-1 2h1"/><path stroke="rgba(51,102,0,0.0196078431372549)" d="M16 1h1"/><path stroke="#498700" d="M4 2h1"/><path stroke="#579300" d="M5 2h1M5 8h1"/><path stroke="#5a9800" d="M6 2h1M2 8h1"/><path stroke="#5c9b00" d="M7 2h1"/><path stroke="#65a200" d="M8 2h1M9 3h1"/><path stroke="#619e00" d="M9 2h2"/><path stroke="#4f8c00" d="M11 2h1m1 8h1m-3 3h1m-5 1h1"/><path stroke="#4a8800" d="M12 2h2m1 11h1M3 15h1"/><path stroke="#4c8800" d="M14 2h1m-1 8h1m-1 1h1M2 12h1m-1 1h1m10 0h1M2 14h3m1 0h1m4 0h2"/><path stroke="#569400" d="M3 3h1m6 0h1m0 1h1M8 5h1M8 6h1m1 0h1M8 8h1m-3 2h1m-4 1h1"/><path stroke="#5c9900" d="M4 3h1"/><path stroke="#6faf00" d="M5 3h1"/><path stroke="#92d100" d="M6 3h1"/><path stroke="#7dbb00" d="M7 3h1"/><path stroke="#6eae00" d="M8 3h1M4 7h1"/><path stroke="#559300" d="M11 3h1m0 2h1M6 7h2m1 0h1M7 9h1m-4 2h1"/><path stroke="#508f00" d="M12 3h1M6 6h1m4 1h1M9 9h1m-3 2h1"/><path stroke="#4c8b00" d="M13 3h1m-4 8h1m-3 2h1m1 0h1"/><path stroke="#4b8700" d="M14 3h1m0 1h1m-1 1h1m-1 1h1m-1 1h1m-1 1h1m-1 1h1m-1 1h1m-1 1h1m-2 1h2m-2 1h1M5 14h1m7 0h1M4 15h8"/><path stroke="#4a8600" d="M15 3h1m-2 11h1m-3 1h1m-8 1h1m1 0h3"/><path stroke="#4c8a00" d="M2 4h1m11 0h1m-1 4h1m-2 1h1m-3 2h1m-1 1h1m-2 2h1"/><path stroke="#599700" d="M3 4h1"/><path stroke="#81bf00" d="M4 4h1"/><path stroke="#afef00" d="M5 4h1"/><path stroke="#87c600" d="M6 4h1"/><path stroke="#6baa00" d="M7 4h1"/><path stroke="#6daa00" d="M8 4h1"/><path stroke="#589600" d="M9 4h1M4 9h1M2 10h1"/><path stroke="#579500" d="M10 4h1m1 0h1M7 5h1m1 0h3m1 0h1M7 6h1m1 0h1M5 7h1m2 0h1M6 8h2M5 9h2m-4 1h3"/><path stroke="#549200" d="M13 4h1M5 12h1"/><path stroke="#5e9b00" d="M2 5h1M2 9h1"/><path stroke="#64a100" d="M3 5h1"/><path stroke="#afee00" d="M4 5h1"/><path stroke="#a0e000" d="M5 5h1"/><path stroke="#76b300" d="M6 5h1"/><path stroke="#589800" d="M2 6h1"/><path stroke="#adec00" d="M3 6h1"/><path stroke="#8cc900" d="M4 6h1"/><path stroke="#68a500" d="M5 6h1"/><path stroke="#529100" d="M11 6h1m1 0h1M3 12h1m1 1h1"/><path stroke="#519000" d="M12 6h1M10 7h1M9 8h1M8 9h1M7 10h1M6 11h1M4 12h1"/><path stroke="#5d9a00" d="M2 7h1"/><path stroke="#7cba00" d="M3 7h1"/><path stroke="#4e8d00" d="M12 7h1m0 4h1m-7 2h1m4 0h1m-5 1h2"/><path stroke="#4d8c00" d="M13 7h1m-3 1h3m-4 1h3m-4 1h2m-3 1h2m-3 1h2m3 0h1m-7 1h1m2 0h1"/><path stroke="#4a8a00" d="M14 7h1M14 9h1M9 12h1"/><path stroke="#498500" d="M1 8h1m14 1h1M4 16h1m1 0h1m3 0h1"/><path stroke="#6fad00" d="M3 8h1"/><path stroke="#69a800" d="M4 8h1"/><path stroke="#4f8e00" d="M10 8h1m-3 2h1m3 1h1m-7 1h1m6 0h1"/><path stroke="#6cab00" d="M3 9h1"/><path stroke="#458400" d="M1 11h1"/><path stroke="#518e00" d="M2 11h1"/><path stroke="#549100" d="M5 11h1"/><path stroke="#438200" d="M1 12h1"/><path stroke="#498900" d="M10 12h1"/><path stroke="#468300" d="M16 12h1M1 14h1m13 0h1"/><path stroke="#4b8900" d="M3 13h1"/><path stroke="#528f00" d="M4 13h1"/><path stroke="#488600" d="M2 15h1"/><path stroke="rgba(0,0,0,0.00392156862745098)" d="M1 16h1m14 0h1"/></svg>
