<svg xmlns="http://www.w3.org/2000/svg" width="28" height="28" viewBox="0 -0.5 18 18" shape-rendering="crispEdges" xmlns:v="https://vecta.io/nano"><path stroke="rgba(212,212,212,0.023529411764705882)" d="M4 0h1"/><path stroke="rgba(206,206,196,0.10196078431372549)" d="M5 0h1"/><path stroke="rgba(194,194,183,0.4588235294117647)" d="M6 0h1"/><path stroke="rgba(188,186,173,0.8941176470588236)" d="M7 0h1"/><path stroke="rgba(170,169,156,0.9607843137254902)" d="M8 0h1"/><path stroke="rgba(170,170,159,0.9725490196078431)" d="M9 0h1"/><path stroke="rgba(182,184,173,0.5764705882352941)" d="M10 0h1"/><path stroke="rgba(21,21,21,0.09411764705882353)" d="M11 0h1"/><path stroke="rgba(0,0,0,0.011764705882352941)" d="M12 0h1M2 14h1m5 3h1"/><path stroke="rgba(217,38,0,0.0784313725490196)" d="M2 1h1"/><path stroke="rgba(222,42,0,0.4235294117647059)" d="M3 1h1"/><path stroke="rgba(202,202,191,0.09411764705882353)" d="M4 1h1"/><path stroke="rgba(165,165,158,0.4117647058823529)" d="M5 1h1"/><path stroke="rgba(193,191,178,0.9019607843137255)" d="M6 1h1"/><path stroke="rgba(151,138,117,0.5882352941176471)" d="M7 1h1"/><path stroke="rgba(13,15,9,0.6862745098039216)" d="M8 1h1"/><path stroke="#12130d" d="M9 1h1"/><path stroke="#0e100c" d="M10 1h1"/><path stroke="rgba(10,13,10,0.9333333333333333)" d="M11 1h1"/><path stroke="rgba(11,14,11,0.3607843137254902)" d="M12 1h1"/><path stroke="rgba(210,35,0,0.28627450980392155)" d="M2 2h1"/><path stroke="rgba(221,36,0,0.8588235294117647)" d="M3 2h1"/><path stroke="rgba(221,114,75,0.3843137254901961)" d="M4 2h1"/><path stroke="rgba(195,177,162,0.8666666666666667)" d="M5 2h1"/><path stroke="rgba(166,166,149,0.41568627450980394)" d="M6 2h1"/><path stroke="rgba(31,28,17,0.6862745098039216)" d="M7 2h1"/><path stroke="rgba(22,22,13,0.9921568627450981)" d="M8 2h1"/><path stroke="#0a0d0a" d="M9 2h2M8 4h1M6 6h1m1 9h1"/><path stroke="rgba(9,12,8,0.996078431372549)" d="M11 2h1m-1 1h2m3 5h1m-2 5h1"/><path stroke="rgba(12,14,12,0.592156862745098)" d="M12 2h1"/><path stroke="rgba(162,36,0,0.44313725490196076)" d="M1 3h1"/><path stroke="rgba(222,41,0,0.9294117647058824)" d="M2 3h1"/><path stroke="rgba(227,40,0,0.996078431372549)" d="M3 3h1"/><path stroke="rgba(243,58,0,0.996078431372549)" d="M4 3h1"/><path stroke="rgba(215,100,55,0.9529411764705882)" d="M5 3h1"/><path stroke="#090c08" d="M6 3h3m2 1h4m-3 1h4M7 6h1m6 0h2m-2 1h2m-2 1h2m-1 1h1m-1 1h1m-2 1h2m-3 1h3m-3 1h2m-4 1h4m-8 1h1m4 0h1"/><path stroke="#0c0d0c" d="M9 3h1"/><path stroke="#0b0b08" d="M10 3h1"/><path stroke="rgba(9,12,8,0.9294117647058824)" d="M13 3h1"/><path stroke="rgba(10,12,10,0.40784313725490196)" d="M14 3h1"/><path stroke="rgba(0,0,0,0.0196078431372549)" d="M15 3h1"/><path stroke="rgba(204,26,0,0.23529411764705882)" d="M0 4h1"/><path stroke="rgba(221,31,0,0.9882352941176471)" d="M1 4h1"/><path stroke="#dd2300" d="M2 4h1M2 5h1"/><path stroke="#f74c00" d="M3 4h1"/><path stroke="#e24a10" d="M4 4h1"/><path stroke="#8c3e16" d="M5 4h1"/><path stroke="#343834" d="M6 4h1"/><path stroke="#151814" d="M7 4h1"/><path stroke="#0a0c0a" d="M9 4h1m3 3h1m0 2h1m-1 1h1m-3 3h1m-7 1h1"/><path stroke="#0a0a07" d="M10 4h1"/><path stroke="rgba(10,12,8,0.7254901960784313)" d="M15 4h1"/><path stroke="rgba(156,33,0,0.24313725490196078)" d="M0 5h1"/><path stroke="rgba(249,53,0,0.996078431372549)" d="M1 5h1"/><path stroke="#e22700" d="M3 5h1"/><path stroke="#f63400" d="M4 5h1"/><path stroke="#c24000" d="M5 5h1"/><path stroke="#191e1a" d="M6 5h1"/><path stroke="#0d110d" d="M7 5h1"/><path stroke="#0b0e0b" d="M8 5h1M6 7h1m3 7h1m0 1h1m-3 1h1"/><path stroke="#0c0d0b" d="M9 5h1m1 1h1m0 1h1m-7 8h1"/><path stroke="#0c0c0a" d="M10 5h1"/><path stroke="#0a0c08" d="M11 5h1"/><path stroke="rgba(10,13,10,0.30980392156862746)" d="M16 5h1"/><path stroke="rgba(191,64,0,0.06274509803921569)" d="M0 6h1"/><path stroke="rgba(255,85,0,0.8274509803921568)" d="M1 6h1"/><path stroke="rgba(255,67,0,0.9803921568627451)" d="M2 6h1"/><path stroke="rgba(245,55,0,0.996078431372549)" d="M3 6h1"/><path stroke="rgba(192,41,0,0.9921568627450981)" d="M4 6h1"/><path stroke="#a43600" d="M5 6h1"/><path stroke="#0c100c" d="M8 6h1m2 1h1M8 8h1M8 9h1"/><path stroke="#10100d" d="M9 6h1M6 8h1M2 9h1m3 0h1m-5 1h1m3 0h1m-5 1h5m-4 1h2m5 0h1m-8 1h2m2 0h1m-4 1h2m-1 1h1"/><path stroke="#0e0e0c" d="M10 6h1"/><path stroke="#0b0b0a" d="M12 6h2"/><path stroke="rgba(9,13,8,0.8784313725490196)" d="M16 6h1"/><path stroke="rgba(202,64,0,0.09411764705882353)" d="M1 7h1"/><path stroke="rgba(78,30,6,0.8588235294117647)" d="M2 7h1"/><path stroke="rgba(49,23,10,0.9137254901960784)" d="M3 7h1"/><path stroke="rgba(18,18,18,0.996078431372549)" d="M4 7h1"/><path stroke="#121311" d="M5 7h1M7 8h1M6 13h1"/><path stroke="#0f110e" d="M7 7h3M9 8h1M9 9h1m-1 1h1m-2 1h2m-2 1h2m-2 1h3m-3 1h2m0 1h1m-1 1h1"/><path stroke="#0f120e" d="M10 7h1"/><path stroke="rgba(9,12,8,0.9921568627450981)" d="M16 7h1"/><path stroke="rgba(15,15,12,0.33725490196078434)" d="M1 8h1"/><path stroke="rgba(16,16,13,0.9921568627450981)" d="M2 8h1"/><path stroke="#2b2c29" d="M3 8h1"/><path stroke="#30322e" d="M4 8h1"/><path stroke="#101210" d="M5 8h1"/><path stroke="#191a17" d="M10 8h1"/><path stroke="#161915" d="M11 8h1"/><path stroke="#0e100d" d="M12 8h1m-6 2h1m-1 1h1m2 0h1m-4 1h1m-1 2h1m1 1h1"/><path stroke="#0a0a08" d="M13 8h1"/><path stroke="rgba(16,16,14,0.7372549019607844)" d="M1 9h1"/><path stroke="#4f534f" d="M3 9h1"/><path stroke="#525652" d="M4 9h1"/><path stroke="#191917" d="M5 9h1"/><path stroke="#0f1210" d="M7 9h1"/><path stroke="#191a19" d="M10 9h2"/><path stroke="#0f1110" d="M12 9h1m-2 3h1"/><path stroke="#090b08" d="M13 9h1"/><path stroke="rgba(9,12,8,0.9764705882352941)" d="M16 9h1"/><path stroke="rgba(17,17,13,0.596078431372549)" d="M1 10h1"/><path stroke="#323532" d="M3 10h1"/><path stroke="#393c37" d="M4 10h1"/><path stroke="#131311" d="M5 10h1M5 12h1"/><path stroke="#10100e" d="M8 10h1m3 0h1"/><path stroke="#131413" d="M10 10h1"/><path stroke="#131412" d="M11 10h1M5 13h1"/><path stroke="#0c0c0b" d="M13 10h1m-1 1h1"/><path stroke="rgba(10,11,10,0.9568627450980393)" d="M16 10h1"/><path stroke="rgba(17,17,12,0.17254901960784313)" d="M1 11h1"/><path stroke="#0e100e" d="M11 11h1m0 1h1m-2 1h1"/><path stroke="#0e0e0d" d="M12 11h1"/><path stroke="rgba(10,12,10,0.9058823529411765)" d="M16 11h1"/><path stroke="rgba(0,0,0,0.00392156862745098)" d="M1 12h1m14 3h1"/><path stroke="rgba(16,16,13,0.8509803921568627)" d="M2 12h1"/><path stroke="#11110e" d="M6 12h1"/><path stroke="rgba(10,12,10,0.7254901960784313)" d="M16 12h1"/><path stroke="rgba(16,16,14,0.5019607843137255)" d="M2 13h1"/><path stroke="rgba(10,13,10,0.3137254901960784)" d="M16 13h1"/><path stroke="rgba(16,16,13,0.9176470588235294)" d="M3 14h1"/><path stroke="rgba(11,13,11,0.6196078431372549)" d="M15 14h1"/><path stroke="rgba(16,16,16,0.06274509803921569)" d="M16 14h1"/><path stroke="rgba(14,16,14,0.807843137254902)" d="M4 15h1"/><path stroke="rgba(10,13,10,0.996078431372549)" d="M13 15h1"/><path stroke="rgba(12,15,12,0.5882352941176471)" d="M14 15h1"/><path stroke="rgba(10,10,10,0.09803921568627451)" d="M15 15h1"/><path stroke="rgba(9,13,9,0.23137254901960785)" d="M5 16h1"/><path stroke="rgba(9,13,8,0.792156862745098)" d="M6 16h1"/><path stroke="rgba(10,12,8,0.9450980392156862)" d="M7 16h1"/><path stroke="rgba(10,12,10,0.9725490196078431)" d="M8 16h1"/><path stroke="rgba(16,16,13,0.9647058823529412)" d="M11 16h1"/><path stroke="rgba(14,16,14,0.7333333333333333)" d="M12 16h1"/><path stroke="rgba(12,17,12,0.4117647058823529)" d="M13 16h1"/><path stroke="rgba(18,18,9,0.11372549019607843)" d="M14 16h1"/><path stroke="rgba(0,0,0,0.00784313725490196)" d="M7 17h1"/></svg>
