<svg xmlns="http://www.w3.org/2000/svg" width="28" height="28" viewBox="0 -0.5 18 18" shape-rendering="crispEdges" xmlns:v="https://vecta.io/nano"><path stroke="rgba(255,187,62,0.5019607843137255)" d="M0 0h1m15 0h2M0 1h1M0 2h1m16 0h1m-1 2h1m-1 1h1m-1 1h1m-1 1h1m-1 1h1m-1 1h1m-1 1h1m-1 1h1M0 12h1m16 0h1M0 13h1m16 0h1M0 14h1m16 0h1M0 15h1m16 0h1M0 16h1m16 0h1M0 17h18"/><path stroke="rgba(255,191,70,0.5019607843137255)" d="M1 0h1M4 0h1M8 0h3"/><path stroke="rgba(255,191,68,0.5019607843137255)" d="M2 0h2m1 0h3m4 0h1"/><path stroke="rgba(255,191,66,0.5019607843137255)" d="M11 0h1m1 0h3"/><path stroke="rgba(255,209,94,0.5019607843137255)" d="M1 1h15M1 2h16M2 3h15M2 4h15M1 5h15M1 6h15M1 7h15M1 8h15M1 9h15M1 10h15M1 11h16M1 12h16M1 13h15M1 14h15M1 15h15M1 16h16"/><path stroke="rgba(255,207,92,0.5019607843137255)" d="M16 1h1M1 4h1m14 4h1m-1 7h1"/><path stroke="rgba(255,189,60,0.4980392156862745)" d="M17 1h1M17 3h1"/><path stroke="rgba(255,187,64,0.5019607843137255)" d="M0 3h1M0 4h1M0 5h1M0 11h1"/><path stroke="rgba(255,207,94,0.5019607843137255)" d="M1 3h1m14 10h1m-1 1h1"/><path stroke="rgba(255,207,90,0.5019607843137255)" d="M16 5h1M16 7h1"/><path stroke="rgba(255,189,62,0.5019607843137255)" d="M0 6h1M0 7h1M0 8h1M0 9h1M0 10h1"/><path stroke="rgba(255,205,88,0.5019607843137255)" d="M16 6h1m-1 4h1"/><path stroke="rgba(255,205,90,0.5019607843137255)" d="M16 9h1"/></svg>
