<svg xmlns="http://www.w3.org/2000/svg" width="28" height="28" viewBox="0 -0.5 18 18" shape-rendering="crispEdges" xmlns:v="https://vecta.io/nano"><path stroke="rgba(78,114,0,0.3843137254901961)" d="M3 0h1"/><path stroke="rgba(64,117,0,0.9176470588235294)" d="M4 0h1M8 0h1"/><path stroke="rgba(62,117,0,0.9607843137254902)" d="M5 0h1"/><path stroke="rgba(63,117,0,0.9568627450980393)" d="M6 0h1"/><path stroke="rgba(62,117,0,0.9294117647058824)" d="M7 0h1"/><path stroke="rgba(65,117,0,0.9921568627450981)" d="M9 0h1"/><path stroke="rgba(63,117,0,0.996078431372549)" d="M10 0h3"/><path stroke="rgba(65,117,0,0.996078431372549)" d="M13 0h1"/><path stroke="rgba(79,115,0,0.6588235294117647)" d="M14 0h1"/><path stroke="rgba(77,128,0,0.0392156862745098)" d="M1 1h1"/><path stroke="rgba(77,115,0,0.34901960784313724)" d="M2 1h1"/><path stroke="rgba(74,119,0,0.8235294117647058)" d="M3 1h1"/><path stroke="#477900" d="M4 1h1m8 0h1"/><path stroke="#477700" d="M5 1h1m6 0h1"/><path stroke="#396800" d="M6 1h1m4 0h1"/><path stroke="#427400" d="M7 1h1m2 0h1"/><path stroke="#4b7d00" d="M8 1h2"/><path stroke="#4e7800" d="M14 1h1"/><path stroke="rgba(77,116,0,0.4823529411764706)" d="M15 1h1"/><path stroke="rgba(80,112,0,0.06274509803921569)" d="M16 1h1"/><path stroke="rgba(73,109,0,0.027450980392156862)" d="M0 2h1m16 11h1m-1 1h1"/><path stroke="rgba(78,115,0,0.3215686274509804)" d="M1 2h1"/><path stroke="rgba(75,120,0,0.9215686274509803)" d="M2 2h1"/><path stroke="#457c00" d="M3 2h1M14 2h1"/><path stroke="#448200" d="M4 2h1m8 0h1M1 9h1m14 0h1"/><path stroke="#428000" d="M5 2h1m6 0h1"/><path stroke="#2e6a00" d="M6 2h1m4 0h1"/><path stroke="#377800" d="M7 2h1m2 0h1"/><path stroke="#3e8600" d="M8 2h2"/><path stroke="#4d7800" d="M15 2h1"/><path stroke="rgba(79,116,0,0.5333333333333333)" d="M16 2h1"/><path stroke="rgba(70,116,0,0.043137254901960784)" d="M17 2h1"/><path stroke="rgba(76,114,0,0.3411764705882353)" d="M0 3h1"/><path stroke="#4b7500" d="M1 3h1M16 3h1"/><path stroke="#437e00" d="M2 3h1"/><path stroke="#438300" d="M3 3h1M2 8h1m12 0h1M1 10h1m14 0h1"/><path stroke="#498700" d="M4 3h1"/><path stroke="#458600" d="M5 3h1M8 3h1"/><path stroke="#458800" d="M6 3h1"/><path stroke="#4a8a00" d="M7 3h1m5 0h1"/><path stroke="#438100" d="M9 3h2M1 11h1m14 0h1"/><path stroke="#418100" d="M11 3h1M1 12h1m14 0h1M2 13h1m12 0h1m-8 1h2m-2 2h2"/><path stroke="#448400" d="M12 3h1M5 8h1m6 0h1"/><path stroke="#478500" d="M14 3h1"/><path stroke="#458100" d="M15 3h1"/><path stroke="rgba(80,114,0,0.5725490196078431)" d="M17 3h1"/><path stroke="rgba(71,113,0,0.40784313725490196)" d="M0 4h1"/><path stroke="#4f7700" d="M1 4h1M16 4h1"/><path stroke="#4a8800" d="M2 4h1"/><path stroke="#4c8d00" d="M3 4h1"/><path stroke="#539300" d="M4 4h1"/><path stroke="#4d8e00" d="M5 4h1"/><path stroke="#4e8d00" d="M6 4h1"/><path stroke="#519200" d="M7 4h1"/><path stroke="#4e8f00" d="M8 4h2m1 0h1M3 5h1"/><path stroke="#4f9000" d="M10 4h1m1 0h1"/><path stroke="#559500" d="M13 4h1"/><path stroke="#5f9d00" d="M14 4h1"/><path stroke="#4d8700" d="M15 4h1"/><path stroke="rgba(81,116,0,0.792156862745098)" d="M17 4h1"/><path stroke="rgba(58,104,0,0.8470588235294118)" d="M0 5h1"/><path stroke="#376500" d="M1 5h1M16 5h1"/><path stroke="#4d8b00" d="M2 5h1"/><path stroke="#62a000" d="M4 5h1M6 5h1M8 5h1"/><path stroke="#63a100" d="M5 5h1"/><path stroke="#619f00" d="M7 5h1"/><path stroke="#5e9c00" d="M9 5h1m4 1h1"/><path stroke="#5d9b00" d="M10 5h1"/><path stroke="#5a9900" d="M11 5h1m2 0h1"/><path stroke="#60a000" d="M12 5h1"/><path stroke="#6aa900" d="M13 5h1M5 6h1"/><path stroke="#468200" d="M15 5h1"/><path stroke="rgba(63,105,0,0.996078431372549)" d="M17 5h1"/><path stroke="#3d7500" d="M0 6h1"/><path stroke="rgba(44,103,0,0.996078431372549)" d="M1 6h1"/><path stroke="#417e00" d="M2 6h1"/><path stroke="#4f8e00" d="M3 6h1M1 8h1"/><path stroke="#65a300" d="M4 6h1"/><path stroke="#82c000" d="M6 6h1"/><path stroke="#92d100" d="M7 6h1"/><path stroke="#90d000" d="M8 6h1"/><path stroke="#93d200" d="M9 6h1"/><path stroke="#9cda00" d="M10 6h1"/><path stroke="#90cd00" d="M11 6h1"/><path stroke="#72b100" d="M12 6h1"/><path stroke="#73b200" d="M13 6h1M7 7h1"/><path stroke="#427f00" d="M15 6h1M8 8h2"/><path stroke="#2c6700" d="M16 6h1"/><path stroke="#407800" d="M17 6h1"/><path stroke="#69aa00" d="M0 7h1"/><path stroke="#478600" d="M1 7h1"/><path stroke="#346e00" d="M2 7h1"/><path stroke="#3e7b00" d="M3 7h1"/><path stroke="#579500" d="M4 7h1"/><path stroke="#6bac00" d="M5 7h1"/><path stroke="#6aab00" d="M6 7h1"/><path stroke="#6cab00" d="M8 7h1"/><path stroke="#67a400" d="M9 7h1"/><path stroke="#5e9b00" d="M10 7h1"/><path stroke="#64a200" d="M11 7h2"/><path stroke="#589600" d="M13 7h1"/><path stroke="#478300" d="M14 7h1"/><path stroke="#357100" d="M15 7h1"/><path stroke="#539200" d="M16 7h1"/><path stroke="#6cad00" d="M17 7h1"/><path stroke="#68ab00" d="M0 8h1"/><path stroke="#387b00" d="M3 8h1M14 8h1"/><path stroke="#3a7c00" d="M4 8h1m8 0h1"/><path stroke="#428400" d="M6 8h1m4 0h1"/><path stroke="#3f8000" d="M7 8h1m2 0h1M1 13h1m14 0h1M1 14h1m14 0h1M2 16h1m12 0h1"/><path stroke="#589800" d="M16 8h1"/><path stroke="#61a200" d="M17 8h1"/><path stroke="rgba(70,136,0,0.7137254901960784)" d="M0 9h1"/><path stroke="#8ab261" d="M2 9h1M15 9h1"/><path stroke="#a4bf87" d="M3 9h1M14 9h1"/><path stroke="#7c9b5b" d="M4 9h1m8 0h1"/><path stroke="#316100" d="M5 9h1m6 0h1"/><path stroke="#055400" d="M6 9h1m4 0h1"/><path stroke="#6e944c" d="M7 9h1m2 0h1"/><path stroke="#aac090" d="M8 9h2"/><path stroke="rgba(84,135,0,0.9921568627450981)" d="M17 9h1"/><path stroke="rgba(57,128,0,0.07058823529411765)" d="M0 10h1"/><path stroke="#b3cb9d" d="M2 10h1m12 0h1"/><path stroke="#eff6eb" d="M3 10h1m10 0h1"/><path stroke="#a8b399" d="M4 10h1m8 0h1"/><path stroke="#2f4c0a" d="M5 10h1m6 0h1"/><path stroke="#7d9469" d="M6 10h1m4 0h1"/><path stroke="#bdccb1" d="M7 10h1m2 0h1"/><path stroke="#dee8d6" d="M8 10h2"/><path stroke="rgba(64,128,0,0.0784313725490196)" d="M17 10h1"/><path stroke="rgba(0,128,0,0.00784313725490196)" d="M0 11h1M0 12h1M0 14h1"/><path stroke="#9dbb7d" d="M2 11h1m12 0h1"/><path stroke="#f5f9f0" d="M3 11h1m10 0h1"/><path stroke="#c4c6bd" d="M4 11h1m8 0h1"/><path stroke="#677650" d="M5 11h1m6 0h1"/><path stroke="#f0f1ef" d="M6 11h1m4 0h1"/><path stroke="#eff6e9" d="M7 11h1m2 0h1"/><path stroke="#d3e1c5" d="M8 11h2"/><path stroke="rgba(85,128,0,0.023529411764705882)" d="M17 11h1"/><path stroke="#629429" d="M2 12h1m12 0h1"/><path stroke="#d2e1c2" d="M3 12h1m10 0h1"/><path stroke="#eff0ed" d="M4 12h1m8 0h1"/><path stroke="#c7cfbb" d="M5 12h1m6 0h1"/><path stroke="#f9faf8" d="M6 12h1m4 0h1"/><path stroke="#eff4eb" d="M7 12h1m2 0h1"/><path stroke="#c5d6b4" d="M8 12h2"/><path stroke="rgba(51,102,0,0.0196078431372549)" d="M17 12h1"/><path stroke="rgba(128,128,0,0.00784313725490196)" d="M0 13h1"/><path stroke="#95b572" d="M3 13h1m10 0h1"/><path stroke="#e6efde" d="M4 13h1m8 0h1"/><path stroke="#fff" d="M5 13h1m6 0h1"/><path stroke="#fefffe" d="M6 13h1m4 0h1"/><path stroke="#c1d3af" d="M7 13h1m2 0h1"/><path stroke="#6f9d40" d="M8 13h2"/><path stroke="#3a7e00" d="M2 14h1m12 0h1"/><path stroke="#568f16" d="M3 14h1m10 0h1"/><path stroke="#8eb369" d="M4 14h1m8 0h1"/><path stroke="#b0c998" d="M5 14h1m6 0h1"/><path stroke="#91b471" d="M6 14h1m4 0h1"/><path stroke="#699938" d="M7 14h1m2 0h1"/><path stroke="rgba(85,85,0,0.011764705882352941)" d="M0 15h1m16 1h1"/><path stroke="#3e7f00" d="M1 15h2m12 0h2"/><path stroke="#347600" d="M3 15h1m10 0h1"/><path stroke="#357c00" d="M4 15h1m8 0h1"/><path stroke="#387e00" d="M5 15h1m6 0h1"/><path stroke="#287500" d="M6 15h1m4 0h1"/><path stroke="#2f7a00" d="M7 15h1m2 0h1"/><path stroke="#3f8100" d="M8 15h2"/><path stroke="rgba(64,128,0,0.03137254901960784)" d="M17 15h1"/><path stroke="rgba(0,0,0,0.00392156862745098)" d="M0 16h1m-1 1h2m14 0h1"/><path stroke="rgba(57,123,0,0.10588235294117647)" d="M1 16h1"/><path stroke="#3e7600" d="M3 16h1m10 0h1"/><path stroke="#3a7700" d="M4 16h1m8 0h1"/><path stroke="#3a8000" d="M5 16h1m6 0h1"/><path stroke="#408200" d="M6 16h2m2 0h2"/><path stroke="rgba(58,123,0,0.12156862745098039)" d="M16 16h1"/><path stroke="rgba(73,128,0,0.054901960784313725)" d="M2 17h1"/><path stroke="rgba(60,120,0,0.06666666666666667)" d="M3 17h2m3 0h2m3 0h3"/><path stroke="rgba(60,135,0,0.06666666666666667)" d="M5 17h3m2 0h3"/></svg>
