<svg xmlns="http://www.w3.org/2000/svg" width="28" height="28" viewBox="0 -0.5 18 18" shape-rendering="crispEdges" xmlns:v="https://vecta.io/nano"><path stroke="rgba(88,16,0,0.12549019607843137)" d="M8 0h1"/><path stroke="rgba(86,12,0,0.2549019607843137)" d="M9 0h1"/><path stroke="rgba(97,6,0,0.16470588235294117)" d="M10 0h1"/><path stroke="rgba(85,0,0,0.011764705882352941)" d="M11 0h1"/><path stroke="rgba(255,0,0,0.00392156862745098)" d="M7 1h1M5 2h1"/><path stroke="rgba(94,23,0,0.6470588235294118)" d="M8 1h1"/><path stroke="#5f0a00" d="M9 1h1"/><path stroke="rgba(94,11,0,0.7450980392156863)" d="M10 1h1"/><path stroke="rgba(66,41,0,0.19607843137254902)" d="M11 1h1"/><path stroke="rgba(0,77,0,0.0392156862745098)" d="M12 1h1"/><path stroke="rgba(189,38,0,0.21176470588235294)" d="M7 2h1"/><path stroke="rgba(120,33,0,0.7647058823529411)" d="M8 2h1"/><path stroke="#5b0b00" d="M9 2h1"/><path stroke="rgba(91,13,0,0.8784313725490196)" d="M10 2h1"/><path stroke="rgba(62,49,0,0.7372549019607844)" d="M11 2h1"/><path stroke="rgba(1,81,0,0.7450980392156863)" d="M12 2h1"/><path stroke="rgba(15,70,0,0.4823529411764706)" d="M13 2h1"/><path stroke="rgba(10,71,0,0.09803921568627451)" d="M14 2h1"/><path stroke="rgba(195,16,0,0.1843137254901961)" d="M4 3h1"/><path stroke="rgba(215,23,0,0.6039215686274509)" d="M5 3h1"/><path stroke="rgba(234,29,0,0.7686274509803922)" d="M6 3h1"/><path stroke="rgba(194,27,0,0.8745098039215686)" d="M7 3h1"/><path stroke="rgba(116,22,0,0.9803921568627451)" d="M8 3h1"/><path stroke="#4a0b00" d="M9 3h1"/><path stroke="rgba(76,30,0,0.996078431372549)" d="M10 3h1"/><path stroke="rgba(71,83,0,0.996078431372549)" d="M11 3h1"/><path stroke="#2b6c00" d="M12 3h1"/><path stroke="rgba(33,83,0,0.9882352941176471)" d="M13 3h1"/><path stroke="rgba(18,73,0,0.792156862745098)" d="M14 3h1"/><path stroke="rgba(12,68,0,0.3254901960784314)" d="M15 3h1"/><path stroke="rgba(205,20,0,0.2980392156862745)" d="M3 4h1"/><path stroke="rgba(231,31,0,0.8196078431372549)" d="M4 4h1"/><path stroke="#f72500" d="M5 4h1"/><path stroke="#e20" d="M6 4h1"/><path stroke="#c21400" d="M7 4h1"/><path stroke="#8b1000" d="M8 4h1"/><path stroke="#651000" d="M9 4h1"/><path stroke="#4a2b00" d="M10 4h1"/><path stroke="#3a6a00" d="M11 4h1"/><path stroke="#3c8200" d="M12 4h1"/><path stroke="#275c00" d="M13 4h1"/><path stroke="#1a4e00" d="M14 4h1"/><path stroke="rgba(24,77,0,0.8862745098039215)" d="M15 4h1"/><path stroke="rgba(0,55,0,0.27058823529411763)" d="M16 4h1"/><path stroke="rgba(153,0,0,0.0196078431372549)" d="M1 5h1"/><path stroke="rgba(214,26,0,0.38823529411764707)" d="M2 5h1"/><path stroke="rgba(236,39,0,0.9176470588235294)" d="M3 5h1"/><path stroke="#e94c10" d="M4 5h1"/><path stroke="#e75715" d="M5 5h1"/><path stroke="#ea3500" d="M6 5h1"/><path stroke="#e31800" d="M7 5h1"/><path stroke="#de1800" d="M8 5h1"/><path stroke="#c61800" d="M9 5h1"/><path stroke="#7b1900" d="M10 5h1"/><path stroke="#364500" d="M11 5h1"/><path stroke="#2d7a00" d="M12 5h1"/><path stroke="#337000" d="M13 5h1"/><path stroke="#205600" d="M14 5h1"/><path stroke="rgba(14,79,0,0.9411764705882353)" d="M15 5h1"/><path stroke="rgba(0,62,0,0.4196078431372549)" d="M16 5h1"/><path stroke="rgba(177,20,0,0.15294117647058825)" d="M1 6h1"/><path stroke="rgba(228,24,0,0.9098039215686274)" d="M2 6h1"/><path stroke="#e83f07" d="M3 6h1"/><path stroke="#d27d2a" d="M4 6h1"/><path stroke="#d17929" d="M5 6h1"/><path stroke="#e83e07" d="M6 6h1"/><path stroke="#f41f00" d="M7 6h1"/><path stroke="#fd2400" d="M8 6h1"/><path stroke="#f12100" d="M9 6h1"/><path stroke="#ac1700" d="M10 6h1"/><path stroke="#511b00" d="M11 6h1"/><path stroke="#353600" d="M12 6h1"/><path stroke="#375200" d="M13 6h1"/><path stroke="#075700" d="M14 6h1"/><path stroke="rgba(48,73,0,0.9450980392156862)" d="M15 6h1"/><path stroke="rgba(99,34,0,0.43529411764705883)" d="M16 6h1"/><path stroke="rgba(199,25,0,0.5568627450980392)" d="M1 7h1"/><path stroke="rgba(242,32,0,0.9725490196078431)" d="M2 7h1"/><path stroke="#f12b00" d="M3 7h1"/><path stroke="#df5c17" d="M4 7h1"/><path stroke="#df5a16" d="M5 7h1"/><path stroke="#f03201" d="M6 7h1"/><path stroke="#ea1c00" d="M7 7h1"/><path stroke="#d61a00" d="M8 7h1"/><path stroke="#d91a00" d="M9 7h1"/><path stroke="#d61c00" d="M10 7h1"/><path stroke="#a31900" d="M11 7h1"/><path stroke="#641400" d="M12 7h1"/><path stroke="#451e00" d="M13 7h1"/><path stroke="#453100" d="M14 7h1"/><path stroke="rgba(134,28,0,0.9764705882352941)" d="M15 7h1"/><path stroke="rgba(163,10,0,0.6705882352941176)" d="M16 7h1"/><path stroke="rgba(164,18,0,0.054901960784313725)" d="M17 7h1m-4 9h1"/><path stroke="rgba(209,27,0,0.9333333333333333)" d="M1 8h1"/><path stroke="#f22300" d="M2 8h1"/><path stroke="#f52100" d="M3 8h1"/><path stroke="#f12d00" d="M4 8h1"/><path stroke="#f02c00" d="M5 8h1"/><path stroke="#e82100" d="M6 8h1"/><path stroke="#c81300" d="M7 8h1"/><path stroke="#b00d00" d="M8 8h1"/><path stroke="#bf1300" d="M9 8h1M6 10h1"/><path stroke="#d81a00" d="M10 8h1"/><path stroke="#c51700" d="M11 8h1"/><path stroke="#951200" d="M12 8h1"/><path stroke="#7e1100" d="M13 8h1"/><path stroke="#871000" d="M14 8h1"/><path stroke="#9e0c00" d="M15 8h1"/><path stroke="rgba(155,15,0,0.8431372549019608)" d="M16 8h1"/><path stroke="rgba(149,14,0,0.1411764705882353)" d="M17 8h1"/><path stroke="rgba(179,20,0,0.8901960784313725)" d="M1 9h1"/><path stroke="rgba(220,30,0,0.9882352941176471)" d="M2 9h1"/><path stroke="#f52300" d="M3 9h1"/><path stroke="#f92000" d="M4 9h1"/><path stroke="#f41e00" d="M5 9h1"/><path stroke="#cf1800" d="M6 9h1"/><path stroke="#ab1000" d="M7 9h1"/><path stroke="#a70d00" d="M8 9h1"/><path stroke="#b31200" d="M9 9h1m1 0h1"/><path stroke="#b71300" d="M10 9h1"/><path stroke="#ac1100" d="M12 9h1M7 16h1"/><path stroke="#a21000" d="M13 9h1m-1 1h1m-4 5h1"/><path stroke="#9c0e00" d="M14 9h2m-1 1h1m-2 3h1m-2 1h1m-3 1h1m-3 1h1"/><path stroke="rgba(156,14,0,0.9450980392156862)" d="M16 9h1"/><path stroke="rgba(155,14,0,0.2196078431372549)" d="M17 9h1"/><path stroke="rgba(170,17,0,0.9019607843137255)" d="M1 10h1"/><path stroke="rgba(190,21,0,0.9882352941176471)" d="M2 10h1"/><path stroke="#ec1f00" d="M3 10h1"/><path stroke="#fc2800" d="M4 10h1"/><path stroke="#ed2100" d="M5 10h1"/><path stroke="#a91000" d="M7 10h1m4 2h1"/><path stroke="#ab1200" d="M8 10h2M8 12h1M8 15h1"/><path stroke="#a91100" d="M10 10h1M4 14h2"/><path stroke="#ac1200" d="M11 10h2m-4 1h2m1 0h1m-4 1h1m-4 1h2m3 0h1m-6 1h1m-2 1h1m1 0h1m-2 1h1"/><path stroke="#9b0e00" d="M14 10h1m-3 4h1m-1 1h1m-3 1h2"/><path stroke="rgba(156,14,0,0.9294117647058824)" d="M16 10h1"/><path stroke="rgba(158,15,0,0.19607843137254902)" d="M17 10h1"/><path stroke="rgba(172,17,0,0.8)" d="M1 11h1"/><path stroke="rgba(169,17,0,0.9882352941176471)" d="M2 11h1"/><path stroke="rgba(208,24,0,0.9882352941176471)" d="M3 11h1"/><path stroke="rgba(243,39,0,0.996078431372549)" d="M4 11h1"/><path stroke="#e21f00" d="M5 11h1"/><path stroke="#b71100" d="M6 11h1"/><path stroke="#a70e00" d="M7 11h1"/><path stroke="#aa1200" d="M8 11h1"/><path stroke="#ad1200" d="M11 11h1m-2 1h2m-4 1h3m-4 1h2"/><path stroke="#a11000" d="M13 11h1"/><path stroke="#9a0e00" d="M14 11h1m-1 1h1m-2 1h1"/><path stroke="rgba(156,14,0,0.984313725490196)" d="M15 11h1"/><path stroke="rgba(156,14,0,0.7294117647058823)" d="M16 11h1"/><path stroke="rgba(153,13,0,0.0784313725490196)" d="M17 11h1"/><path stroke="rgba(171,17,0,0.28627450980392155)" d="M1 12h1"/><path stroke="rgba(171,18,0,0.9019607843137255)" d="M2 12h1"/><path stroke="rgba(177,18,0,0.996078431372549)" d="M3 12h1"/><path stroke="#d01900" d="M4 12h1"/><path stroke="#c91700" d="M5 12h1"/><path stroke="#b01100" d="M6 12h1"/><path stroke="#a81100" d="M7 12h1"/><path stroke="#9e0e00" d="M13 12h1"/><path stroke="rgba(156,14,0,0.9529411764705882)" d="M15 12h1m-2 2h1"/><path stroke="rgba(159,16,0,0.49019607843137253)" d="M16 12h1"/><path stroke="rgba(173,19,0,0.5843137254901961)" d="M2 13h1"/><path stroke="rgba(170,18,0,0.9647058823529412)" d="M3 13h1"/><path stroke="#ad1100" d="M4 13h1"/><path stroke="#af1200" d="M5 13h1m3 1h2"/><path stroke="#a31000" d="M12 13h1M8 16h1"/><path stroke="rgba(156,14,0,0.9176470588235294)" d="M15 13h1"/><path stroke="rgba(162,15,0,0.25882352941176473)" d="M16 13h1"/><path stroke="rgba(171,20,0,0.25098039215686274)" d="M2 14h1"/><path stroke="rgba(172,18,0,0.8941176470588236)" d="M3 14h1"/><path stroke="#a41000" d="M11 14h1"/><path stroke="rgba(158,15,0,0.5450980392156862)" d="M15 14h1"/><path stroke="rgba(172,18,0,0.33725490196078434)" d="M3 15h1"/><path stroke="rgba(171,18,0,0.9098039215686274)" d="M4 15h1"/><path stroke="#ab1100" d="M6 15h1"/><path stroke="#a81200" d="M9 15h1"/><path stroke="rgba(155,14,0,0.9725490196078431)" d="M13 15h1"/><path stroke="rgba(162,16,0,0.6431372549019608)" d="M14 15h1"/><path stroke="rgba(182,0,0,0.027450980392156862)" d="M15 15h1"/><path stroke="rgba(173,18,0,0.38823529411764707)" d="M4 16h1"/><path stroke="rgba(172,18,0,0.9058823529411765)" d="M5 16h1"/><path stroke="rgba(156,14,0,0.9490196078431372)" d="M12 16h1"/><path stroke="rgba(163,18,0,0.5647058823529412)" d="M13 16h1"/><path stroke="rgba(173,18,0,0.2196078431372549)" d="M5 17h1"/><path stroke="rgba(172,18,0,0.6039215686274509)" d="M6 17h1"/><path stroke="rgba(171,17,0,0.8588235294117647)" d="M7 17h1"/><path stroke="rgba(161,16,0,0.9215686274509803)" d="M8 17h1"/><path stroke="rgba(155,14,0,0.9372549019607843)" d="M9 17h1"/><path stroke="rgba(157,14,0,0.9215686274509803)" d="M10 17h1"/><path stroke="rgba(161,16,0,0.7372549019607844)" d="M11 17h1"/><path stroke="rgba(170,16,0,0.3764705882352941)" d="M12 17h1"/><path stroke="rgba(162,23,0,0.043137254901960784)" d="M13 17h1"/></svg>
