<?xml version="1.0" standalone="no"?>
<!DOCTYPE svg PUBLIC "-//W3C//DTD SVG 20010904//EN"
 "http://www.w3.org/TR/2001/REC-SVG-20010904/DTD/svg10.dtd">
<svg version="1.0" xmlns="http://www.w3.org/2000/svg"
 width="260.000000pt" height="260.000000pt" viewBox="0 0 260.000000 260.000000"
 preserveAspectRatio="xMidYMid meet">
<metadata>
Created by potrace 1.14, written by Peter Selinger 2001-2017
</metadata>
<g transform="translate(0.000000,260.000000) scale(0.100000,-0.100000)"
fill="#000000" stroke="none">
<path d="M290 2380 l0 -70 -70 0 -70 0 -2 -652 c-1 -359 -4 -620 -5 -580 l-4
72 -69 0 -70 0 0 -140 0 -140 75 0 75 0 0 -220 0 -220 70 0 70 0 0 -70 0 -70
73 0 72 0 -3 -70 -4 -70 796 0 796 0 0 70 0 70 75 0 75 0 0 70 0 70 73 1 c39
0 102 0 140 -1 l67 -1 0 220 0 221 -70 0 -70 0 0 69 0 69 75 4 75 3 0 -72 0
-73 70 0 70 0 0 140 0 140 -75 0 -75 0 0 580 0 580 -70 0 -70 0 0 70 0 70
-1010 0 -1010 0 0 -70z m720 -280 l0 -70 70 0 69 0 4 73 c1 39 4 6 5 -75 l2
-148 140 0 140 0 2 148 c1 81 4 114 5 75 l4 -73 69 0 70 0 0 70 0 70 215 0
214 0 3 -72 3 -73 73 0 72 0 0 -142 0 -143 70 0 70 0 0 -220 0 -220 -145 0
-145 0 0 70 0 70 -70 0 -70 0 0 145 0 145 -70 0 -69 0 -3 -72 -3 -73 -72 -3
-73 -3 0 -69 0 -70 -70 0 -70 0 0 -70 0 -70 -150 0 -150 0 0 70 0 70 -70 0
-70 0 0 70 0 69 -72 3 -73 3 -3 73 -3 72 -69 0 -70 0 0 -145 0 -145 -70 0 -70
0 0 -70 0 -70 -145 0 -145 0 0 220 0 220 70 0 70 0 0 143 0 142 72 0 73 0 3
73 3 72 214 0 215 0 0 -70z m-172 -947 c-21 -2 -57 -2 -80 0 -24 2 -7 4 37 4
44 0 63 -2 43 -4z m612 -63 l0 -70 65 0 64 0 4 73 3 72 2 -77 2 -78 70 0 70 0
0 75 0 75 75 0 75 0 0 -145 0 -144 78 -4 c44 -2 14 -4 -70 -5 l-148 -2 -2 -72
-2 -73 -3 73 -4 72 -139 0 -140 0 -2 -72 -2 -73 -3 73 -4 72 -139 0 -140 0 -2
-72 -2 -73 -3 73 -4 72 -139 0 -140 0 -2 -72 -2 -73 -3 73 -4 72 -147 2 c-84
1 -114 3 -69 5 l77 4 2 77 2 77 3 -77 4 -78 64 0 65 0 0 70 0 70 145 0 145 0
0 75 0 75 150 0 150 0 0 -70z m-757 -367 c-24 -2 -62 -2 -86 0 -23 2 -4 4 43
4 47 0 66 -2 43 -4z"/>
<path d="M1160 1080 l0 -70 140 0 140 0 0 70 0 70 -140 0 -140 0 0 -70z"/>
<path d="M1740 1010 l0 -140 65 0 65 0 0 140 0 140 -65 0 -65 0 0 -140z"/>
<path d="M0 1230 l0 -70 70 0 70 0 0 70 0 70 -70 0 -70 0 0 -70z"/>
<path d="M2460 1230 l0 -70 70 0 70 0 0 70 0 70 -70 0 -70 0 0 -70z"/>
</g>
</svg>
